<?xml version="1.0" encoding="utf-8"?>
<!-- Generator: Adobe Illustrator 23.0.2, SVG Export Plug-In . SVG Version: 6.00 Build 0)  -->
<svg version="1.1" xmlns="http://www.w3.org/2000/svg" xmlns:xlink="http://www.w3.org/1999/xlink" x="0px" y="0px"
	 viewBox="0 0 459.1 211.2" style="enable-background:new 0 0 459.1 211.2;" xml:space="preserve">
<style type="text/css">
	.st0{fill:#FFFFFF;}
	.st1{fill:#1A1A1A;}
	.st2{fill:url(#SVGID_1_);}
	.st3{fill:url(#SVGID_2_);}
	.st4{fill:url(#SVGID_3_);}
	.st5{fill:url(#SVGID_4_);}
	.st6{fill:url(#SVGID_5_);}
	.st7{fill:url(#SVGID_6_);}
	.st8{fill:url(#SVGID_7_);}
	.st9{fill:url(#SVGID_8_);}
	.st10{fill:url(#SVGID_9_);}
	.st11{fill:url(#SVGID_10_);}
	.st12{fill:url(#SVGID_11_);}
	.st13{fill:url(#SVGID_12_);}
	.st14{fill:url(#SVGID_13_);}
	.st15{fill:url(#SVGID_14_);}
	.st16{fill:#0E3354;}
	.st17{fill:url(#SVGID_15_);}
	.st18{fill:url(#SVGID_16_);}
	.st19{fill:url(#SVGID_17_);}
	.st20{fill:url(#SVGID_18_);}
	.st21{fill:url(#SVGID_19_);}
	.st22{fill:url(#SVGID_20_);}
	.st23{fill:url(#SVGID_21_);}
	.st24{fill:url(#SVGID_22_);}
	.st25{fill:url(#SVGID_23_);}
	.st26{fill:url(#SVGID_24_);}
	.st27{fill:url(#SVGID_25_);}
	.st28{fill:url(#SVGID_26_);}
	.st29{fill:url(#SVGID_27_);}
	.st30{fill:url(#SVGID_28_);}
	.st31{fill:url(#SVGID_29_);}
	.st32{fill:url(#SVGID_30_);}
	.st33{fill:url(#SVGID_31_);}
	.st34{fill:url(#SVGID_32_);}
	.st35{fill:url(#SVGID_33_);}
	.st36{fill:url(#SVGID_34_);}
	.st37{fill:url(#SVGID_35_);}
	.st38{fill:url(#SVGID_36_);}
	.st39{fill:url(#SVGID_37_);}
	.st40{fill:url(#SVGID_38_);}
	.st41{fill:url(#SVGID_39_);}
	.st42{fill:url(#SVGID_40_);}
	.st43{fill:url(#SVGID_41_);}
	.st44{fill:url(#SVGID_42_);}
	.st45{fill:url(#SVGID_43_);}
	.st46{fill:url(#SVGID_44_);}
	.st47{fill:url(#SVGID_45_);}
	.st48{fill:url(#SVGID_46_);}
	.st49{fill:url(#SVGID_47_);}
	.st50{fill:url(#SVGID_48_);}
	.st51{fill:url(#SVGID_49_);}
</style>
<g id="BG">
</g>
<g id="Logos">
	<g>
		<g>
			<path class="st16" d="M17.4,145.4H0L17.6,16.3h23.2l16.8,129.1H40.1l-3.3-29H20.5L17.4,145.4z M28.6,39.7l-6.2,59.8h12.4
				L28.6,39.7z"/>
			<path class="st16" d="M66.8,16.3v129.1h18v-38.8h2.5c10.8,0,18.8-3.4,23.4-9.8c5.2-7.1,6.8-14.8,6.8-35.1c0-19.4-1.5-27.4-7-35.3
				c-5.2-7.8-11-10-26.7-10H66.8z M84.8,33.1h2.5c10.6,0,12.8,4.7,12.8,28.7c0,24.3-2.1,28.9-12.8,28.9h-2.5V33.1z"/>
			<path class="st16" d="M139.9,33.1h-16.8V16.3h52.4v16.8h-17.6v112.2h-18V33.1z"/>
			<path class="st16" d="M234.1,112.5c0,13.2-0.2,15.9-2.1,20.5c1.4,1.7,2.7,2.9,5.6,3.9v17.8h-1.7c-7,0-13.5-3.3-17.4-9.1
				c-3.3,1.2-6.4,1.7-9.9,1.7c-9.1,0-17.2-4.1-21.5-10.6c-3.5-5.6-4.1-8.9-4.1-24.2V49c0-15.3,0.6-18.6,4.1-24.2
				c4.3-6.4,12.4-10.4,21.5-10.4s17.2,4.1,21.5,10.4c3.5,5.6,4.1,8.9,4.1,24.2V112.5z M216.1,41.6c0-7.4-2.1-10.4-7.5-10.4
				c-5.2,0-7.5,3.1-7.5,10.4V120c0,7.4,2.1,10.4,7.5,10.4c5.2,0,7.5-3.1,7.5-10.4V41.6z"/>
			<path class="st16" d="M263.3,145.4h-18V16.3h18V145.4z"/>
		</g>
		<g>
			<path class="st16" d="M6.5,174H9l6.2,13.5H12l-1.2-2.8H4.6l-1.2,2.8H0.2L6.5,174z M5.6,182.3h4.2l-2-4.8H7.6L5.6,182.3z"/>
			<path class="st16" d="M23.1,174v10.9H31v2.5H20.1V174H23.1z"/>
			<path class="st16" d="M38.9,174v10.9h7.9v2.5H36V174H38.9z"/>
			<path class="st16" d="M51.8,187.4V174h2.9v13.5H51.8z"/>
			<path class="st16" d="M65.9,174h2.5l6.2,13.5h-3.2l-1.2-2.8h-6.2l-1.2,2.8h-3.1L65.9,174z M65,182.3h4.2l-2-4.8H67L65,182.3z"/>
			<path class="st16" d="M91.9,174v13.5h-2.6l-6.8-8.3h0v8.3h-3V174H82l6.9,8.3h0V174H91.9z"/>
			<path class="st16" d="M111.7,185.1c-1.5,1.4-3.9,2.8-6.8,2.8c-4.5,0-7.4-3.2-7.4-7.2c0-3.9,3-7.1,7.3-7.1c2.5,0,4.9,1,6.5,2.4
				l-1.9,1.9c-1.2-1.1-3-1.7-4.4-1.7c-2.7,0-4.5,2.1-4.5,4.6c0,2.5,1.8,4.6,4.6,4.6c1.8,0,3.5-1,4.7-2.1L111.7,185.1z"/>
			<path class="st16" d="M124.8,181.7h-5v3.2h8.7v2.5h-11.7V174h11.2v2.6h-8.3v2.6h5V181.7z"/>
			<path class="st16" d="M141.1,187.4V174h11.1v2.6h-8.2v2.7h5v2.5h-5v5.6H141.1z"/>
			<path class="st16" d="M163.4,173.6c4.3,0,7.7,3.2,7.7,7.1c0,4-3.4,7.2-7.7,7.2c-4.3,0-7.6-3.2-7.6-7.2
				C155.8,176.8,159.1,173.6,163.4,173.6z M163.4,185.3c2.6,0,4.6-2.1,4.6-4.6c0-2.5-2-4.6-4.6-4.6c-2.5,0-4.5,2.1-4.5,4.6
				C158.8,183.2,160.8,185.3,163.4,185.3z"/>
			<path class="st16" d="M176.6,187.4V174h7.5c1.9,0,3.2,0.6,4,1.5c0.7,0.7,1.1,1.7,1.1,2.8c0,1.7-1.1,3.1-2.7,3.8l3.2,5.4h-3.4
				l-2.7-4.9h-4v4.9H176.6z M179.5,176.5v3.5h4.8c1,0,1.9-0.7,1.9-1.8c0-0.5-0.2-0.9-0.5-1.2c-0.5-0.5-1.1-0.6-1.6-0.6H179.5z"/>
			<path class="st16" d="M202.3,187.4V174h7.5c1.9,0,3.2,0.5,4.1,1.5c0.7,0.8,1.1,1.7,1.1,2.8c0,1.2-0.5,2.2-1.3,3
				c-0.8,0.8-2,1.3-3.9,1.3h-4.5v4.9H202.3z M205.2,176.5v3.5h4.6c0.5,0,1.1-0.1,1.5-0.5c0.3-0.3,0.5-0.8,0.5-1.2
				c0-0.5-0.2-0.9-0.5-1.2c-0.5-0.5-1.1-0.6-1.6-0.6H205.2z"/>
			<path class="st16" d="M220.1,187.4V174h3v5h6.3v-5h3v13.5h-3v-6H223v6H220.1z"/>
			<path class="st16" d="M250.7,174l-5.3,7.3v6.1h-3v-6.1L237,174h3.7l3.3,4.7l3.3-4.7H250.7z"/>
			<path class="st16" d="M264.9,177.4c-0.8-0.6-2.5-1.4-4.7-1.4c-1.3,0-2.5,0.5-2.5,1.6c0,1.2,1.8,1.3,3.5,1.4
				c2.5,0.2,6.3,0.5,6.3,4.2c0,3.3-2.8,4.6-6.1,4.6c-3.5,0-5.8-1.4-7.4-2.7l1.7-2c1.1,0.9,3,2.3,5.8,2.3c1.7,0,3.1-0.7,3.1-1.9
				c0-1.3-1.4-1.6-3.4-1.8c-2.9-0.2-6.4-0.5-6.4-3.9c0-3.3,3-4.3,5.6-4.3c2.8,0,5.2,1,6.3,1.8L264.9,177.4z"/>
			<path class="st16" d="M272.9,187.4V174h2.9v13.5H272.9z"/>
			<path class="st16" d="M295.7,185.1c-1.5,1.4-3.9,2.8-6.8,2.8c-4.5,0-7.4-3.2-7.4-7.2c0-3.9,3-7.1,7.3-7.1c2.5,0,4.9,1,6.5,2.4
				l-1.9,1.9c-1.2-1.1-3-1.7-4.4-1.7c-2.7,0-4.5,2.1-4.5,4.6c0,2.5,1.8,4.6,4.6,4.6c1.8,0,3.5-1,4.7-2.1L295.7,185.1z"/>
			<path class="st16" d="M305.2,174h2.5l6.2,13.5h-3.2l-1.2-2.8h-6.2l-1.2,2.8H299L305.2,174z M304.3,182.3h4.2l-2-4.8h-0.1
				L304.3,182.3z"/>
			<path class="st16" d="M321.8,174v10.9h7.9v2.5h-10.9V174H321.8z"/>
			<path class="st16" d="M339.2,174h12.7v2.6H347v10.9h-2.9v-10.9h-4.9V174z"/>
			<path class="st16" d="M357,187.4V174h3v5h6.3v-5h3v13.5h-3v-6H360v6H357z"/>
			<path class="st16" d="M383.9,181.7h-5v3.2h8.7v2.5H376V174h11.2v2.6H379v2.6h5V181.7z"/>
			<path class="st16" d="M393.2,187.4V174h7.5c1.9,0,3.2,0.6,4,1.5c0.7,0.7,1.1,1.7,1.1,2.8c0,1.7-1.1,3.1-2.7,3.8l3.2,5.4h-3.4
				l-2.7-4.9h-4v4.9H393.2z M396.1,176.5v3.5h4.8c1,0,1.9-0.7,1.9-1.8c0-0.5-0.2-0.9-0.5-1.2c-0.5-0.5-1.1-0.6-1.6-0.6H396.1z"/>
			<path class="st16" d="M416.1,174h2.5l6.2,13.5h-3.2l-1.2-2.8h-6.2l-1.2,2.8h-3.1L416.1,174z M415.2,182.3h4.2l-2-4.8h-0.1
				L415.2,182.3z"/>
			<path class="st16" d="M429.7,187.4V174h7.5c1.9,0,3.2,0.5,4.1,1.5c0.7,0.8,1.1,1.7,1.1,2.8c0,1.2-0.5,2.2-1.3,3
				c-0.8,0.8-2,1.3-3.9,1.3h-4.5v4.9H429.7z M432.7,176.5v3.5h4.6c0.5,0,1.1-0.1,1.5-0.5c0.3-0.3,0.5-0.8,0.5-1.2
				c0-0.5-0.2-0.9-0.5-1.2c-0.5-0.5-1.1-0.6-1.6-0.6H432.7z"/>
			<path class="st16" d="M459.1,174l-5.3,7.3v6.1h-3v-6.1l-5.4-7.3h3.7l3.3,4.7l3.3-4.7H459.1z"/>
			<path class="st16" d="M120.7,194.9c4.3,0,7.7,3.2,7.7,7.1c0,2.4-1.2,4.5-3.2,5.8l1.7,2.5l-2.7,0.9l-1.5-2.3
				c-0.6,0.2-1.3,0.2-2,0.2c-4.3,0-7.6-3.2-7.6-7.2C113.1,198.1,116.4,194.9,120.7,194.9z M122.3,203.4l1.4,2.1
				c1-0.9,1.6-2.1,1.6-3.5c0-2.5-2-4.6-4.6-4.6c-2.5,0-4.5,2.1-4.5,4.6c0,2.5,2,4.6,4.5,4.6c0.1,0,0.3,0,0.5,0l-1.5-2.3L122.3,203.4
				z"/>
			<path class="st16" d="M145.9,195.3v8.6c0,3.4-2.6,5.3-6.2,5.3c-3.5,0-6.1-1.9-6.1-5.3v-8.6h3v8.6c0,1.8,1.4,2.7,3.2,2.7
				c1.8,0,3.2-0.9,3.2-2.7v-8.6H145.9z"/>
			<path class="st16" d="M156.5,195.3h2.5l6.2,13.5h-3.2l-1.2-2.8h-6.2l-1.2,2.8h-3.1L156.5,195.3z M155.6,203.6h4.2l-2-4.8h-0.1
				L155.6,203.6z"/>
			<path class="st16" d="M173.1,195.3v10.9h7.9v2.5h-10.9v-13.5H173.1z"/>
			<path class="st16" d="M186,208.7v-13.5h2.9v13.5H186z"/>
			<path class="st16" d="M194.1,195.3h12.7v2.6h-4.9v10.9H199v-10.9h-4.9V195.3z"/>
			<path class="st16" d="M223.5,195.3l-5.3,7.3v6.1h-3v-6.1l-5.4-7.3h3.7l3.3,4.7l3.3-4.7H223.5z"/>
			<path class="st16" d="M239.3,195.3h2.5l6.2,13.5h-3.2l-1.2-2.8h-6.2l-1.2,2.8H233L239.3,195.3z M238.4,203.6h4.2l-2-4.8h-0.1
				L238.4,203.6z"/>
			<path class="st16" d="M265.3,195.3v13.5h-2.6l-6.8-8.3h0v8.3h-3v-13.5h2.5l6.9,8.3h0v-8.3H265.3z"/>
			<path class="st16" d="M272,208.7v-13.5h6.3c2.5,0,4.1,0.7,5.3,1.9c1.2,1.2,1.8,2.9,1.8,4.8c0,2-0.7,3.7-1.9,5
				c-1.2,1.1-2.6,1.8-5.2,1.8H272z M278.2,206.2c1.5,0,2.2-0.3,2.9-1c0.8-0.8,1.2-1.9,1.2-3.2c0-1.3-0.4-2.4-1.1-3.1
				c-0.7-0.7-1.4-1.1-3-1.1H275v8.4H278.2z"/>
			<path class="st16" d="M298.2,208.7v-13.5h2.9v13.5H298.2z"/>
			<path class="st16" d="M320.3,195.3v13.5h-2.6l-6.8-8.3h0v8.3h-3v-13.5h2.5l6.9,8.3h0v-8.3H320.3z"/>
			<path class="st16" d="M339.4,195.3v13.5h-2.6l-6.8-8.3h0v8.3h-3v-13.5h2.5l6.9,8.3h0v-8.3H339.4z"/>
			<path class="st16" d="M352.6,194.9c4.3,0,7.7,3.2,7.7,7.1c0,4-3.4,7.2-7.7,7.2c-4.3,0-7.6-3.2-7.6-7.2
				C345,198.1,348.3,194.9,352.6,194.9z M352.6,206.6c2.6,0,4.6-2.1,4.6-4.6c0-2.5-2-4.6-4.6-4.6c-2.5,0-4.5,2.1-4.5,4.6
				C348,204.5,350,206.6,352.6,206.6z"/>
			<path class="st16" d="M378.7,195.3l-6.2,13.5h-2.6l-6.2-13.5h3.3l4.2,9.8h0.1l4.2-9.8H378.7z"/>
			<path class="st16" d="M386.8,195.3h2.5l6.2,13.5h-3.2l-1.2-2.8h-6.2l-1.2,2.8h-3.1L386.8,195.3z M385.9,203.6h4.2l-2-4.8h-0.1
				L385.9,203.6z"/>
			<path class="st16" d="M397.5,195.3h12.7v2.6h-4.9v10.9h-2.9v-10.9h-4.9V195.3z"/>
			<path class="st16" d="M415.3,208.7v-13.5h2.9v13.5H415.3z"/>
			<path class="st16" d="M431.5,194.9c4.3,0,7.7,3.2,7.7,7.1c0,4-3.4,7.2-7.7,7.2c-4.3,0-7.6-3.2-7.6-7.2
				C423.9,198.1,427.2,194.9,431.5,194.9z M431.5,206.6c2.6,0,4.6-2.1,4.6-4.6c0-2.5-2-4.6-4.6-4.6c-2.5,0-4.5,2.1-4.5,4.6
				C426.9,204.5,428.9,206.6,431.5,206.6z"/>
			<path class="st16" d="M457.1,195.3v13.5h-2.6l-6.8-8.3h0v8.3h-3v-13.5h2.5l6.9,8.3h0v-8.3H457.1z"/>
		</g>
		<g>
			<linearGradient id="SVGID_1_" gradientUnits="userSpaceOnUse" x1="286.1525" y1="12.6996" x2="454.986" y2="13.255">
				<stop  offset="0" style="stop-color:#005687"/>
				<stop  offset="0.3275" style="stop-color:#0E3354"/>
				<stop  offset="0.7319" style="stop-color:#84163F"/>
				<stop  offset="1" style="stop-color:#A31C39"/>
			</linearGradient>
			<path class="st2" d="M457.5,18.6L402,25.8c-1.8,0.2-3.6-0.1-5.1-1.1l-21.5-12.9c-2-1.2-4.4-1.2-6.4,0l-21.5,12.9
				c-1.5,0.9-3.3,1.3-5.1,1.1l-55.4-7.2v-1.9h51.7c2.6,0,5.1-0.7,7.2-2L368.5,1c2.2-1.3,5-1.3,7.3,0l22.8,13.7c2.2,1.3,4.7,2,7.2,2
				h51.7V18.6z"/>
			<linearGradient id="SVGID_2_" gradientUnits="userSpaceOnUse" x1="286.0871" y1="32.5824" x2="454.9206" y2="33.1377">
				<stop  offset="0" style="stop-color:#005687"/>
				<stop  offset="0.3275" style="stop-color:#0E3354"/>
				<stop  offset="0.7319" style="stop-color:#84163F"/>
				<stop  offset="1" style="stop-color:#A31C39"/>
			</linearGradient>
			<path class="st3" d="M457.5,38.5l-49.2,7.2c-1.6,0.2-3.3,0-4.7-0.8L377,31.6c-3.1-1.6-6.7-1.6-9.8,0l-26.5,13.4
				c-1.5,0.7-3.1,1-4.7,0.8l-49.2-7.2v-1.9h46.1c2.2,0,4.4-0.5,6.3-1.5L367.1,21c3.2-1.6,6.9-1.6,10.1,0L405,35.1
				c2,1,4.1,1.5,6.3,1.5h46.1V38.5z"/>
			<linearGradient id="SVGID_3_" gradientUnits="userSpaceOnUse" x1="286.0219" y1="52.4077" x2="454.8554" y2="52.963">
				<stop  offset="0" style="stop-color:#005687"/>
				<stop  offset="0.3275" style="stop-color:#0E3354"/>
				<stop  offset="0.7319" style="stop-color:#84163F"/>
				<stop  offset="1" style="stop-color:#A31C39"/>
			</linearGradient>
			<path class="st4" d="M457.5,58.4l-42.9,7.2c-1.5,0.3-3.1,0.1-4.5-0.6l-31.5-13.8c-4.1-1.8-8.8-1.8-12.9,0L334.2,65
				c-1.4,0.6-3,0.8-4.5,0.6l-42.9-7.2v-1.9h40.3c1.9,0,3.9-0.4,5.7-1.2l32.8-14.4c4.2-1.8,8.9-1.8,13.1,0l32.8,14.4
				c1.8,0.8,3.7,1.2,5.7,1.2h40.3V58.4z"/>
			<linearGradient id="SVGID_4_" gradientUnits="userSpaceOnUse" x1="285.9572" y1="72.0862" x2="454.7906" y2="72.6416">
				<stop  offset="0" style="stop-color:#005687"/>
				<stop  offset="0.3275" style="stop-color:#0E3354"/>
				<stop  offset="0.7319" style="stop-color:#84163F"/>
				<stop  offset="1" style="stop-color:#A31C39"/>
			</linearGradient>
			<path class="st5" d="M457.5,78.3l-36.5,7.1c-1.5,0.3-3,0.2-4.4-0.4l-36.9-14.4c-4.8-1.9-10.2-1.9-15,0l-36.9,14.4
				c-1.4,0.5-2.9,0.7-4.4,0.4l-36.5-7.1v-1.9h34.4c1.8,0,3.5-0.3,5.1-1l38.8-15.1c4.5-1.8,9.5-1.8,14,0L418,75.5
				c1.6,0.6,3.4,1,5.1,1h34.4V78.3z"/>
			<linearGradient id="SVGID_5_" gradientUnits="userSpaceOnUse" x1="285.8923" y1="91.8018" x2="454.7258" y2="92.3571">
				<stop  offset="0" style="stop-color:#005687"/>
				<stop  offset="0.3275" style="stop-color:#0E3354"/>
				<stop  offset="0.7319" style="stop-color:#84163F"/>
				<stop  offset="1" style="stop-color:#A31C39"/>
			</linearGradient>
			<path class="st6" d="M457.5,98.2l-30.1,7.1c-1.5,0.3-3,0.3-4.5-0.2l-42.3-14.9c-5.5-1.9-11.4-1.9-16.9,0L321.4,105
				c-1.4,0.5-3,0.6-4.5,0.2l-30.1-7.1v-1.9h28.4c1.6,0,3.2-0.3,4.7-0.8l44.3-15.6c5.2-1.8,10.8-1.8,15.9,0l44.3,15.6
				c1.5,0.5,3.1,0.8,4.7,0.8h28.4V98.2z"/>
			<linearGradient id="SVGID_6_" gradientUnits="userSpaceOnUse" x1="285.8275" y1="111.5142" x2="454.6609" y2="112.0696">
				<stop  offset="0" style="stop-color:#005687"/>
				<stop  offset="0.3275" style="stop-color:#0E3354"/>
				<stop  offset="0.7319" style="stop-color:#84163F"/>
				<stop  offset="1" style="stop-color:#A31C39"/>
			</linearGradient>
			<path class="st7" d="M457.5,118.1l-23.7,6.9c-1.5,0.4-3.2,0.4-4.7-0.1l-47.8-15.5c-6-1.9-12.4-1.9-18.4,0L315.2,125
				c-1.5,0.5-3.2,0.5-4.7,0.1l-23.7-6.9v-1.9h22.3c1.5,0,2.9-0.2,4.3-0.7l49.6-16.1c5.9-1.9,12.3-1.9,18.2,0l49.6,16.1
				c1.4,0.5,2.9,0.7,4.3,0.7h22.3V118.1z"/>
			<linearGradient id="SVGID_7_" gradientUnits="userSpaceOnUse" x1="285.7628" y1="131.1804" x2="454.5963" y2="131.7357">
				<stop  offset="0" style="stop-color:#005687"/>
				<stop  offset="0.3275" style="stop-color:#0E3354"/>
				<stop  offset="0.7319" style="stop-color:#84163F"/>
				<stop  offset="1" style="stop-color:#A31C39"/>
			</linearGradient>
			<path class="st8" d="M457.5,138l-17.1,6.6c-1.7,0.6-3.5,0.7-5.2,0.2l-53-15.9c-6.6-2-13.6-2-20.1,0l-53,15.9
				c-1.7,0.5-3.5,0.4-5.2-0.2l-17.1-6.6v-1.9H303c1.4,0,2.7-0.2,4-0.6l55.2-16.6c6.5-1.9,13.4-1.9,19.9,0l55.2,16.6
				c1.3,0.4,2.7,0.6,4,0.6h16.2V138z"/>
		</g>
	</g>
</g>
</svg>
